<svg width="1080" height="931" xmlns="http://www.w3.org/2000/svg" xmlns:xlink="http://www.w3.org/1999/xlink" xml:space="preserve" overflow="hidden"><g transform="translate(-1660 -772)"><path d="M1676 1237.5 1901.75 786 2498.25 786 2724 1237.5 2498.25 1689 1901.75 1689Z" stroke="#000000" stroke-width="27.5" stroke-miterlimit="8" fill="#2F5597" fill-rule="evenodd"/><g><g><g><path d="M444.17 12.0208 444.17 12.0208C448.377 27.6479 459.797 40.8708 474.823 48.0833L474.823 48.0833C459.797 55.2958 448.978 68.5187 444.17 84.1458L444.17 84.1458C439.962 68.5187 428.543 55.2958 413.517 48.0833L413.517 48.0833C428.543 40.8708 439.962 27.6479 444.17 12.0208Z" transform="matrix(1 0 0 1 1908 1096)"/><path d="M59.5031 144.25 59.5031 144.25C63.7104 159.877 75.1302 173.1 90.1562 180.312L90.1562 180.312C75.1302 187.525 64.3114 200.748 59.5031 216.375L59.5031 216.375C55.2958 200.748 43.876 187.525 28.85 180.312L28.85 180.312C43.876 173.1 55.2958 159.877 59.5031 144.25Z" transform="matrix(1 0 0 1 1908 1096)"/><path d="M119.006 24.0417 119.006 24.0417C122.612 37.2646 132.229 48.0833 144.25 54.0937L144.25 54.0937C131.628 60.1041 122.612 70.9229 119.006 84.1458L119.006 84.1458C115.4 70.9229 105.783 60.1041 93.7625 54.0937L93.7625 54.0937C105.783 48.0833 115.4 37.2646 119.006 24.0417Z" transform="matrix(1 0 0 1 1908 1096)"/><path d="M515.694 120.208 515.694 120.208C519.3 133.431 528.917 144.25 540.937 150.26L540.937 150.26C528.315 156.271 519.3 167.09 515.694 180.312L515.694 180.312C512.087 167.09 502.471 156.271 490.45 150.26L490.45 150.26C502.471 144.25 512.087 133.431 515.694 120.208Z" transform="matrix(1 0 0 1 1908 1096)"/><path d="M288.5 237.411C283.692 237.411 279.484 233.204 279.484 228.396L279.484 168.292C279.484 163.483 283.692 159.276 288.5 159.276 293.308 159.276 297.516 163.483 297.516 168.292L297.516 228.396C297.516 233.204 293.308 237.411 288.5 237.411Z" transform="matrix(1 0 0 1 1908 1096)"/><path d="M288.5 141.245C283.692 141.245 279.484 137.037 279.484 132.229L279.484 84.1458C279.484 79.3375 283.692 75.1302 288.5 75.1302 293.308 75.1302 297.516 79.3375 297.516 84.1458L297.516 132.229C297.516 137.037 293.308 141.245 288.5 141.245Z" transform="matrix(1 0 0 1 1908 1096)"/><path d="M288.5 57.0989C283.692 57.0989 279.484 52.8917 279.484 48.0833L279.484 24.0417C279.484 19.2333 283.692 15.026 288.5 15.026 293.308 15.026 297.516 19.2333 297.516 24.0417L297.516 48.0833C297.516 52.8917 293.308 57.0989 288.5 57.0989Z" transform="matrix(1 0 0 1 1908 1096)"/><path d="M354.614 195.338C354.013 195.338 353.412 195.338 352.811 195.338 348.003 194.136 344.998 189.328 346.2 184.52L356.418 137.638C357.62 132.83 362.428 129.825 367.236 131.027 372.045 132.229 375.05 137.037 373.848 141.846L363.63 188.727C362.428 192.333 358.822 195.338 354.614 195.338Z" transform="matrix(1 0 0 1 1908 1096)"/><path d="M372.646 112.996C372.045 112.996 371.444 112.996 370.843 112.996 366.034 111.794 363.029 106.985 364.231 102.177L364.231 102.177 372.045 66.7156C373.247 61.9073 377.454 58.9021 382.863 59.5031 387.672 60.7052 390.677 64.9125 390.076 70.3218 390.076 70.3218 390.076 70.3218 390.076 70.9229L382.262 106.384C380.459 109.991 376.853 112.996 372.646 112.996Z" transform="matrix(1 0 0 1 1908 1096)"/><path d="M414.719 183.318C409.91 183.318 405.703 179.11 405.703 174.302 405.703 172.499 406.304 170.696 407.506 168.893L448.377 109.39C451.382 105.182 456.792 104.581 460.999 107.586 464.605 110.592 465.807 115.4 463.403 119.607L422.532 179.11C420.729 182.116 417.724 183.318 414.719 183.318Z" transform="matrix(1 0 0 1 1908 1096)"/><path d="M222.385 195.338C218.178 195.338 214.572 192.333 213.37 188.126L200.748 129.224C199.546 124.416 203.152 119.607 207.96 118.405 212.769 117.203 217.577 120.208 218.178 125.017L230.8 183.919C232.002 188.727 228.997 193.535 224.188 194.737 223.587 195.338 222.986 195.338 222.385 195.338Z" transform="matrix(1 0 0 1 1908 1096)"/><path d="M201.95 101.576C197.743 101.576 194.136 98.5708 192.934 94.3635L188.126 70.9229C186.924 66.1146 189.929 61.3062 194.737 60.1041 199.546 58.9021 204.354 61.9073 205.556 66.7156 205.556 66.7156 205.556 66.7156 205.556 67.3166L210.365 90.7573C211.567 95.5656 208.561 100.374 203.753 101.576L203.753 101.576C203.152 101.576 202.551 101.576 201.95 101.576L201.95 101.576Z" transform="matrix(1 0 0 1 1908 1096)"/><path d="M162.281 183.318C159.276 183.318 156.271 182.116 155.069 179.711L114.198 120.208C111.794 116.001 112.996 110.592 117.203 107.586 121.41 105.182 126.219 105.783 129.224 109.991L170.095 169.494C173.1 173.701 171.898 179.11 167.691 182.116 165.887 182.717 164.084 183.318 162.281 183.318Z" transform="matrix(1 0 0 1 1908 1096)"/><path d="M551.756 492.253 533.725 297.516C533.124 291.505 527.714 286.697 521.704 286.697 519.3 286.697 515.694 286.697 512.688 286.697L509.683 251.836 498.864 251.235C489.849 250.634 480.833 251.235 472.419 251.836L469.413 219.38 460.398 217.577C397.288 209.763 334.179 230.8 288.5 275.277 242.821 230.8 179.711 209.763 116.602 217.577L107.586 219.38 104.581 251.836C95.5656 251.235 87.151 250.634 78.1354 251.235L67.9177 251.836 64.9125 286.697C61.3062 286.697 58.301 286.697 55.8969 286.697 49.8864 286.697 44.4771 291.505 43.876 297.516L25.8448 492.253C24.6427 498.864 29.451 504.875 36.0625 505.476 36.6635 505.476 37.2646 505.476 37.8656 505.476 74.5291 504.274 177.307 506.678 260.852 561.373 265.059 563.777 269.267 565.58 274.075 565.58L304.127 565.58C308.935 565.58 313.143 564.378 316.749 561.974 404.501 507.279 504.274 504.875 539.735 506.077 546.347 506.077 551.756 501.269 552.357 494.657 551.756 492.854 551.756 492.854 551.756 492.253ZM300.521 296.914C338.987 257.246 392.48 236.81 447.175 239.816L463.403 426.138C435.154 431.548 361.827 449.579 300.521 502.471L300.521 296.914ZM129.825 240.417C184.52 237.411 238.012 257.847 276.479 297.516L276.479 503.072C215.173 450.18 141.846 432.149 113.597 426.739L129.825 240.417ZM72.125 462.802 90.1562 274.676C93.7625 274.676 97.9698 275.277 102.778 275.277L87.7521 447.175 99.1718 448.377C100.374 448.377 201.95 461.6 272.873 531.922L272.873 531.922C194.136 471.818 106.384 464.004 72.125 462.802ZM304.127 533.124 304.127 533.124C376.252 462.201 477.227 448.377 477.828 448.377L489.248 447.175 474.222 275.277C479.03 274.676 483.237 274.676 486.844 274.676L504.875 462.802C470.615 464.004 382.863 472.419 304.127 533.124Z" transform="matrix(1 0 0 1 1908 1096)"/></g></g></g><g><g><g><path d="M2185.46 1584.32C2192.84 1591.7 2204.8 1591.7 2212.17 1584.32 2212.17 1584.32 2212.17 1584.32 2212.17 1584.32L2246.03 1550.46C2250.43 1546.06 2252.38 1539.77 2251.24 1533.66L2263.03 1521.73C2298.64 1549 2349.61 1542.23 2376.87 1506.62 2404.14 1471.01 2397.38 1420.04 2361.77 1392.78 2326.16 1365.51 2275.19 1372.28 2247.92 1407.88 2225.61 1437.02 2225.61 1477.49 2247.92 1506.62L2235.99 1518.55C2229.88 1517.41 2223.59 1519.36 2219.19 1523.75L2185.46 1557.48C2178.05 1564.82 2177.99 1576.77 2185.33 1584.19 2185.37 1584.23 2185.42 1584.28 2185.46 1584.32ZM2247.38 1457.52C2247.38 1421.76 2276.37 1392.77 2312.13 1392.77 2347.89 1392.77 2376.88 1421.76 2376.88 1457.52 2376.88 1493.28 2347.89 1522.27 2312.13 1522.27 2276.41 1522.17 2247.48 1493.24 2247.38 1457.52Z" fill="#F2F2F2"/><path d="M2353.95 1474.9 2341.62 1462.67C2341.19 1462.35 2340.67 1462.14 2340.13 1462.08L2332.53 1462.08C2332.26 1460.46 2331.96 1458.82 2331.61 1457.22L2341.48 1455.34C2342.7 1455.11 2343.66 1454.17 2343.91 1452.96L2348.04 1434.32C2348.45 1432.66 2347.44 1430.97 2345.77 1430.56 2345.75 1430.55 2345.72 1430.55 2345.69 1430.54 2344.05 1430.16 2342.41 1431.19 2342.04 1432.83 2342.03 1432.85 2342.03 1432.87 2342.02 1432.89L2338.33 1449.56 2329.91 1451.15C2329.44 1449.6 2328.77 1448.11 2327.91 1446.73L2296.35 1446.73C2295.49 1448.14 2294.82 1449.65 2294.35 1451.23L2285.93 1449.64 2282.26 1432.97C2281.77 1431.33 2280.04 1430.4 2278.4 1430.9 2276.94 1431.34 2276.01 1432.78 2276.22 1434.29L2280.35 1452.93C2280.61 1454.14 2281.57 1455.07 2282.78 1455.31L2292.65 1457.2C2292.3 1458.79 2292 1460.43 2291.76 1462.05L2284.04 1462.05C2283.5 1462.11 2282.97 1462.31 2282.53 1462.65L2270.31 1474.9C2268.95 1475.92 2268.67 1477.85 2269.69 1479.21 2270.71 1480.58 2272.65 1480.85 2274.01 1479.83L2285.66 1468.1 2291.06 1468.1C2291.06 1469.01 2291.06 1469.82 2291.06 1470.52 2291.07 1472.13 2291.26 1473.73 2291.63 1475.3L2283.75 1477.27C2282.75 1477.52 2281.94 1478.24 2281.59 1479.21L2275.14 1496.86C2274.56 1498.46 2275.38 1500.23 2276.98 1500.82 2277.32 1500.94 2277.67 1501 2278.03 1501.01 2279.33 1501.01 2280.49 1500.21 2280.94 1498.99L2286.82 1482.8 2293.95 1481.02C2297.09 1486.35 2302.43 1490.02 2308.54 1491.03L2309.54 1490.71 2309.54 1468.31C2309.54 1466.82 2310.75 1465.61 2312.24 1465.61 2313.73 1465.61 2314.94 1466.82 2314.94 1468.31L2314.94 1490.76 2315.93 1491.08C2322.05 1490.09 2327.4 1486.42 2330.53 1481.07L2337.65 1482.85 2343.56 1499.04C2344 1500.26 2345.15 1501.07 2346.45 1501.07 2346.81 1501.05 2347.16 1500.99 2347.5 1500.88 2349.1 1500.28 2349.92 1498.51 2349.33 1496.91L2342.78 1479.1C2342.43 1478.14 2341.62 1477.41 2340.62 1477.16L2332.74 1475.19C2333.11 1473.63 2333.3 1472.02 2333.31 1470.42 2333.31 1469.72 2333.31 1468.91 2333.31 1467.99L2338.7 1467.99 2350.36 1479.72C2351.48 1481 2353.43 1481.12 2354.7 1480 2355.98 1478.88 2356.1 1476.93 2354.98 1475.66 2354.69 1475.34 2354.34 1475.08 2353.95 1474.9Z" fill="#F2F2F2"/><path d="M2328.16 1412.84C2329.15 1412.35 2329.57 1411.15 2329.1 1410.15 2328.59 1409.17 2327.4 1408.77 2326.4 1409.23 2323.8 1410.55 2321.6 1412.54 2320.03 1415 2318.89 1416.8 2317.99 1418.74 2317.34 1420.78 2314.06 1419.48 2310.42 1419.48 2307.14 1420.78 2306.51 1418.74 2305.6 1416.79 2304.44 1415 2302.88 1412.54 2300.68 1410.54 2298.07 1409.23 2297.07 1408.76 2295.88 1409.16 2295.38 1410.15 2294.89 1411.14 2295.3 1412.35 2296.29 1412.84 2298.15 1413.83 2299.72 1415.28 2300.85 1417.05 2301.97 1418.8 2302.8 1420.71 2303.31 1422.72 2298.5 1426.58 2295.78 1432.47 2295.94 1438.64 2295.95 1439.54 2296.01 1440.44 2296.13 1441.33L2328.13 1441.33C2328.25 1440.44 2328.31 1439.54 2328.32 1438.64 2328.44 1432.51 2325.72 1426.67 2320.95 1422.83 2321.46 1420.82 2322.29 1418.9 2323.41 1417.16 2324.58 1415.32 2326.22 1413.83 2328.16 1412.84Z" fill="#F2F2F2"/></g></g></g><path d="M1904.71 979.19C1902.25 979.766 1900.7 980.554 1900.06 981.556 1899.42 982.558 1899.37 984.216 1899.92 986.529L1916.97 1059.41C1917.78 1062.88 1918.98 1065.09 1920.57 1066.06 1922.16 1067.02 1924.66 1067.11 1928.08 1066.31 1945.13 1062.32 1950.54 1047.03 1944.32 1020.43 1940.8 1005.4 1936 994.246 1929.93 986.979 1923.54 979.346 1915.14 976.75 1904.71 979.19ZM1907.42 952.555C1922.02 949.138 1934.02 948.105 1943.41 949.456 1957.51 951.52 1969.2 957.763 1978.49 968.186 1986.69 977.315 1992.48 989.058 1995.83 1003.41 1997.53 1010.65 1998.17 1018.18 1997.75 1026.02 1997.34 1033.85 1996 1040.6 1993.75 1046.28 1988.65 1059.48 1979.99 1069.84 1967.78 1077.36 1960.67 1081.74 1952.69 1084.96 1943.85 1087.03L1932.05 1089.38 1922.15 1091.4C1914.74 1092.88 1908.17 1094.28 1902.46 1095.62L1895.68 1097.21C1891.81 1098.11 1887.47 1099.33 1882.68 1100.85 1879.67 1101.81 1877.52 1102.45 1876.22 1102.75 1871.56 1103.84 1867.44 1103.62 1863.86 1102.09 1860.29 1100.55 1858.05 1097.87 1857.16 1094.06 1856.53 1091.34 1856.75 1089.05 1857.84 1087.19 1858.93 1085.33 1861.01 1083.56 1864.08 1081.88 1865.73 1081 1866.76 1079.95 1867.18 1078.73 1867.59 1077.51 1867.58 1074.89 1867.15 1070.88 1866.56 1066.14 1864.89 1056.94 1862.12 1043.29 1859.35 1029.64 1856.4 1016.11 1853.26 1002.71 1852.11 997.762 1851.04 994.664 1850.06 993.416 1849.09 992.168 1847.52 991.358 1845.38 990.988 1839.18 990.306 1835.51 987.542 1834.38 982.696 1833.49 978.878 1834.53 975.568 1837.51 972.766 1840.49 969.963 1844.82 967.897 1850.51 966.567 1851.53 966.328 1853.69 965.869 1856.98 965.19 1861.61 964.28 1865.38 963.484 1868.3 962.801 1877.6 960.625 1887.63 957.99 1898.4 954.894 1901.14 954.1 1904.15 953.321 1907.42 952.555Z" fill="#FFFFFF" fill-rule="evenodd"/><text fill="#000000" fill-opacity="0" font-family="Arial,Arial_MSFontService,sans-serif" font-size="154.552" x="1834.07" y="1084.11">D</text><path d="M2066.47 984.174C2065.14 984.288 2064 986.136 2063.05 989.719 2062.79 990.48 2061.88 993.272 2060.33 998.094 2058.61 1003.77 2057.8 1007.13 2057.89 1008.16 2057.91 1008.46 2058.71 1008.54 2060.29 1008.41L2079.18 1006.79C2081.34 1006.6 2082.41 1006.4 2082.39 1006.16 2082.24 1004.44 2080.18 1000.03 2076.2 992.951 2072.41 988.919 2070.01 986.433 2069 985.494 2068 984.555 2067.16 984.115 2066.47 984.174ZM2066.03 926.966C2073.02 926.368 2079.89 928.501 2086.65 933.364 2095.72 939.777 2109.58 959.156 2128.25 991.502L2149.8 1028.97C2151.74 1032.24 2153.2 1034.28 2154.18 1035.08 2155.16 1035.89 2156.8 1036.37 2159.1 1036.55 2164.65 1036.91 2167.64 1039.64 2168.07 1044.74 2168.55 1050.34 2165.79 1054.53 2159.78 1057.32 2153.78 1060.1 2144.21 1062.06 2131.08 1063.18 2116.34 1064.44 2106.21 1064.7 2100.71 1063.94 2095.44 1063.72 2091.6 1062.66 2089.18 1060.76 2086.76 1058.87 2085.42 1056.38 2085.16 1053.29 2084.95 1050.86 2085.43 1048.9 2086.6 1047.42 2087.77 1045.94 2089.81 1044.57 2092.72 1043.31 2094.8 1042.4 2095.77 1041.19 2095.64 1039.68 2095.37 1036.52 2093.02 1034.81 2088.59 1034.53 2083.23 1034.26 2075.58 1034.55 2065.61 1035.4 2057.48 1036.1 2052.76 1036.92 2051.46 1037.89 2050.85 1038.34 2050.29 1039.28 2049.78 1040.7 2049.27 1042.11 2049.07 1043.46 2049.17 1044.73 2049.24 1045.54 2049.38 1046.01 2049.57 1046.14 2049.77 1046.26 2051.01 1046.63 2053.29 1047.25 2058.87 1048.29 2061.85 1051.02 2062.23 1055.45 2062.99 1064.4 2053.53 1069.72 2033.85 1071.41 2023.22 1072.32 2015.01 1072.2 2009.23 1071.05 2004.28 1070.02 2001.57 1066.72 2001.1 1061.17 2000.88 1058.66 2001.35 1056.65 2002.5 1055.15 2003.65 1053.65 2005.62 1052.28 2008.42 1051.02 2012.14 1049.33 2014.88 1047.18 2016.65 1044.57 2018.41 1041.96 2020.89 1036.18 2024.07 1027.24L2035.11 996.305C2039.14 985.075 2041.77 976.711 2042.99 971.215 2044.21 965.718 2044.64 960.5 2044.28 955.559 2043.85 949.816 2043.87 945.724 2044.35 943.284 2044.82 940.844 2046.14 938.369 2048.32 935.859 2052.72 930.565 2058.62 927.601 2066.03 926.966Z" fill="#FFFFFF" fill-rule="evenodd"/><text fill="#000000" fill-opacity="0" font-family="Arial,Arial_MSFontService,sans-serif" font-size="145.145" x="2001.05" y="1053.87">A</text><path d="M2212.23 922.313C2219.63 922.345 2226.69 923.042 2233.4 924.402 2243.28 926.41 2248.21 930.777 2248.18 937.501 2248.17 939.857 2247.58 941.652 2246.42 942.887 2245.26 944.121 2243.19 945.38 2240.21 946.663 2237.07 948.429 2235.07 951.607 2234.19 956.198 2233.32 960.789 2232.85 970.362 2232.78 984.916 2232.67 1009.48 2233.17 1024.45 2234.26 1029.82 2234.7 1031.67 2235.28 1032.98 2235.99 1033.74 2236.7 1034.51 2238.09 1035.41 2240.16 1036.46 2245.2 1038.78 2247.71 1042.19 2247.69 1046.68 2247.66 1052.87 2243.18 1057.05 2234.25 1059.2 2225.65 1061.25 2215.07 1062.24 2202.52 1062.19 2180.19 1062.09 2169.04 1057.38 2169.08 1048.07 2169.1 1044.44 2171.48 1041.19 2176.24 1038.32 2178.89 1036.71 2180.46 1034.52 2180.95 1031.76 2182.21 1024.42 2182.89 1008.93 2183 985.275 2183.07 969.052 2182.37 958.873 2180.89 954.737 2180.03 952.176 2178.01 949.892 2174.81 947.886 2172.15 946.113 2170.27 944.515 2169.17 943.091 2168.07 941.667 2167.53 939.814 2167.54 937.531 2167.55 934.027 2169.1 931.337 2172.19 929.46 2175.27 927.584 2180.11 926.033 2186.7 924.809 2195.41 923.108 2203.91 922.276 2212.23 922.313Z" fill="#FFFFFF" fill-rule="evenodd"/><text fill="#000000" fill-opacity="0" font-family="Arial,Arial_MSFontService,sans-serif" font-size="139.877" x="2167.54" y="1044.7">I</text><path d="M2296.33 924.394C2304.78 925.244 2311.1 926.757 2315.31 928.932 2316.53 929.551 2317.64 930.552 2318.64 931.936 2319.63 933.32 2320.71 935.486 2321.87 938.434L2338.69 978.406C2340.43 982.58 2341.54 984.99 2342.03 985.637 2342.52 986.284 2343.21 986.651 2344.1 986.741 2344.86 986.818 2345.64 986.546 2346.42 985.925 2347.21 985.304 2348.36 983.83 2349.86 981.504L2365.8 957.107C2367.98 953.428 2369.38 951.101 2369.99 950.126 2373.96 943.748 2377.74 939.572 2381.33 937.597 2385.9 935.022 2393.55 934.275 2404.28 935.356 2423.81 937.321 2433.09 943.095 2432.13 952.679 2431.9 954.914 2431.29 956.671 2430.29 957.951 2429.3 959.232 2427.38 960.709 2424.55 962.384 2422.06 963.913 2420.36 965.947 2419.46 968.484 2416.99 978.201 2415.12 989.361 2413.85 1001.96 2412.2 1018.35 2411.53 1032.69 2411.82 1044.97 2411.9 1047.72 2412.2 1049.55 2412.74 1050.45 2413.27 1051.35 2415 1052.99 2417.93 1055.36 2420.67 1057.61 2421.87 1060.35 2421.55 1063.58 2421 1069.04 2416.85 1072.49 2409.11 1073.94 2406.4 1074.68 2403.29 1075.05 2399.78 1075.03 2396.27 1075 2390.92 1074.63 2383.73 1073.91 2372.66 1072.8 2364.03 1070.93 2357.82 1068.3 2352.08 1066.1 2349.47 1062.42 2349.99 1057.26 2350.19 1055.26 2350.82 1053.71 2351.89 1052.58 2352.95 1051.46 2355.29 1049.7 2358.89 1047.3 2360.27 1046.4 2361.43 1044.18 2362.36 1040.62 2363.3 1037.07 2364.22 1030.78 2365.13 1021.75 2365.62 1016.87 2365.76 1013.88 2365.54 1012.77 2365.33 1011.66 2364.95 1011.08 2364.4 1011.02 2363.36 1010.92 2362.01 1011.86 2360.35 1013.84 2358.7 1015.83 2355.86 1020.3 2351.82 1027.27L2337.67 1051.99C2335.18 1056.26 2333.1 1059.23 2331.44 1060.91 2329.77 1062.6 2327.87 1063.33 2325.72 1063.11 2323.71 1062.91 2322.05 1061.92 2320.74 1060.13 2320.04 1059.2 2318.64 1056.11 2316.55 1050.84 2314.45 1045.58 2312.75 1040.96 2311.46 1036.98L2301.63 1007.12C2300.56 1003.78 2299.5 1002.06 2298.44 1001.96 2297.67 1001.88 2297.12 1002.92 2296.77 1005.08 2295.62 1012.25 2294.71 1019.18 2294.03 1025.87 2293.37 1032.45 2293.23 1036.86 2293.6 1039.1 2293.8 1040.08 2294.15 1040.83 2294.65 1041.36 2295.14 1041.89 2296.86 1043.1 2299.81 1045.01 2302.53 1046.79 2303.72 1049.4 2303.37 1052.86 2302.52 1061.35 2292.2 1064.6 2272.41 1062.61 2255.58 1060.92 2247.58 1055.92 2248.42 1047.62 2248.65 1045.27 2249.35 1043.62 2250.51 1042.68 2251.67 1041.73 2254.33 1040.53 2258.51 1039.07 2259.85 1038.56 2260.88 1037.66 2261.61 1036.38 2262.34 1035.1 2263.22 1032 2264.25 1027.09 2265.28 1022.3 2266.64 1014.11 2268.32 1002.53 2270 990.955 2271.25 981.021 2272.09 972.73 2273.11 962.568 2273.13 955.932 2272.15 952.821 2271.61 951.23 2271.1 950.168 2270.6 949.635 2270.1 949.103 2268.71 948.12 2266.45 946.687 2261.87 943.899 2259.8 940.357 2260.23 936.059 2260.51 933.293 2261.75 930.925 2263.95 928.955 2266.15 926.986 2268.62 925.771 2271.37 925.31 2274.88 924.646 2279.1 924.245 2284.02 924.106 2288.93 923.966 2293.04 924.063 2296.33 924.394Z" fill="#FFFFFF" fill-rule="evenodd"/><text fill="#000000" fill-opacity="0" font-family="Arial,Arial_MSFontService,sans-serif" font-size="150.983" x="2248.36" y="1056.15">M</text><path d="M2513.05 956.95C2519.67 958.606 2527.9 962.39 2537.73 968.301 2538.7 968.88 2539.47 969.242 2540.04 969.384 2540.45 969.486 2542.23 969.381 2545.39 969.069 2546.76 968.919 2548.11 969.009 2549.42 969.338 2554.31 970.56 2558.36 975.338 2561.57 983.672 2564.78 992.005 2565.58 999.354 2563.99 1005.72 2563 1009.69 2560.93 1012.78 2557.78 1014.98 2554.63 1017.18 2551.24 1017.82 2547.6 1016.91 2544.71 1016.19 2542.52 1015.04 2541.04 1013.47 2539.55 1011.9 2536.74 1007.92 2532.59 1001.55 2527.12 993.099 2521.01 988.029 2514.27 986.343 2511.26 985.59 2508.75 985.678 2506.74 986.607 2504.73 987.536 2503.46 989.081 2502.92 991.24 2501.79 995.749 2505.61 1000.54 2514.37 1005.62 2525.65 1012.25 2532.93 1016.94 2536.24 1019.69 2550.93 1032.01 2556.29 1046.08 2552.33 1061.92 2548.85 1075.85 2540.29 1085.81 2526.67 1091.81 2512.98 1097.83 2496.92 1098.54 2478.49 1093.93 2470.3 1091.88 2461.93 1088.75 2453.38 1084.55 2444.83 1080.35 2438.6 1076.04 2434.69 1071.62 2432.31 1069.23 2430.74 1064.21 2429.99 1056.58 2429.23 1048.94 2429.68 1041.8 2431.35 1035.14 2432.22 1031.65 2433.39 1029.65 2434.85 1029.13 2437.95 1026.1 2441.01 1024.96 2444.01 1025.71 2446.98 1026.45 2449.3 1028.4 2450.97 1031.56 2452.19 1033.71 2454.32 1039.16 2457.37 1047.92 2458.69 1051.67 2461.44 1055.22 2465.62 1058.56 2469.79 1061.91 2474.43 1064.22 2479.52 1065.5 2483.82 1066.57 2487.36 1066.69 2490.12 1065.86 2492.88 1065.02 2494.51 1063.61 2495 1061.63 2495.47 1059.76 2494.94 1057.81 2493.41 1055.78 2491.88 1053.76 2488.47 1051.13 2483.19 1047.89 2475.69 1043.34 2469.83 1039.24 2465.6 1035.61 2461.36 1031.98 2458.67 1028.24 2457.51 1024.38 2447.4 1011.82 2443.81 999.674 2446.74 987.955 2448.19 982.137 2450.95 976.831 2454.99 972.039 2459.04 967.247 2463.73 963.666 2469.06 961.298 2482.77 954.494 2497.43 953.044 2513.05 956.95Z" fill="#FFFFFF" fill-rule="evenodd"/><text fill="#000000" fill-opacity="0" font-family="Arial,Arial_MSFontService,sans-serif" font-size="142.112" x="2429.63" y="1079.16">S</text></g></svg>